<?xml version="1.0" encoding="utf-8"?>
<svg xmlns="http://www.w3.org/2000/svg" fill="none" viewBox="0 0 480 88">
  <path d="M9.952 69.053a9.99 9.99 0 0 1-8.706-5.052 9.66 9.66 0 0 1 .273-9.944l17.929-28.155a9.998 9.998 0 0 1 8.85-4.808 9.98 9.98 0 0 1 8.566 5.28 9.65 9.65 0 0 1-.54 9.929L18.407 64.457a9.994 9.994 0 0 1-8.455 4.596Z" fill="#F62B54"/>
  <path d="M40.704 69.052c-3.616 0-6.943-1.933-8.69-5.04a9.629 9.629 0 0 1 .273-9.918l17.895-28.09a9.982 9.982 0 0 1 8.857-4.911c3.647.08 6.952 2.12 8.623 5.31a9.629 9.629 0 0 1-.646 9.975l-17.89 28.09a9.979 9.979 0 0 1-8.422 4.584Z" fill="#FC0"/>
  <path d="M70.77 69.288c5.097 0 9.23-4.046 9.23-9.037 0-4.99-4.133-9.036-9.23-9.036-5.099 0-9.231 4.045-9.231 9.036 0 4.99 4.132 9.037 9.23 9.037Z" fill="#00CA72"/>
  <path d="M471.757 51.739c2.788 0 4.456 1.983 4.456 5.23V68.1H480V56.715c0-5.523-2.602-8.725-7.494-8.725-1.915 0-4.954.524-6.765 4.045a6.205 6.205 0 0 0-5.079-3.836 8.73 8.73 0 0 0-2.127-.126c-1.557.126-4.33 1.094-5.367 3.29V48.41h-3.791V68.1h3.791V57.474c0-4.132 2.704-5.735 5.412-5.735 2.538 0 4.205 1.94 4.205 5.189v11.17h3.768V57.476c0-3.29 1.976-5.774 5.204-5.736Zm-36.294 13.07a6.231 6.231 0 0 0 4.615-1.906 6.426 6.426 0 0 0 1.797-4.71c0-3.966-2.917-6.454-6.412-6.454-3.498 0-6.412 2.488-6.412 6.453a6.407 6.407 0 0 0 1.786 4.7 6.232 6.232 0 0 0 4.596 1.917h.03Zm0 3.692c-5.538 0-10.161-4.09-10.161-10.331s4.623-10.203 10.161-10.203c5.538 0 10.199 3.962 10.199 10.203 0 6.24-4.687 10.35-10.226 10.35l.027-.019ZM405.797 58.17l-.038.022c0-6.24 4.744-10.202 10.321-10.225a10.008 10.008 0 0 1 7.494 3.16l-2.872 2.447a6.469 6.469 0 0 0-4.622-1.854c-3.495 0-6.534 2.488-6.534 6.45 0 2.677 1.592 5.09 4.034 6.115a6.475 6.475 0 0 0 7.122-1.436l2.914 2.447a10.08 10.08 0 0 1-7.536 3.205c-5.535 0-10.283-4.09-10.283-10.331Zm-12.128 6.15a2.62 2.62 0 0 1 2.59-2.652 2.626 2.626 0 0 1 2.403 1.646c.128.32.192.661.188 1.005a2.623 2.623 0 0 1-2.591 2.488 2.62 2.62 0 0 1-2.59-2.488Z" fill="#000"/>
  <path clip-rule="evenodd" d="M404.031 23.383h-13.489l-9.454 24.375-9.405-24.375h-13.488L374.593 61.9l-10.199 25.465h13.389l26.248-63.982Zm-82.032 21.424c0 6.153 5.379 10.202 10.663 10.202 5.192 0 10.293-3.768 10.293-10.206 0-6.439-5.101-10.21-10.293-10.21-5.284 0-10.663 4.056-10.663 10.214Zm20.956 21.507V61.44c-2.735 4.14-9.116 5.705-12.39 5.705-10.841 0-21.686-8.546-21.686-22.342 0-13.792 10.841-22.339 21.686-22.339 2.731 0 9.112.912 12.39 5.698v-4.764h12.573v42.923l-12.573-.007Zm-37.654 0h-12.573V60.98c-2.1 3.95-7.194 6.252-12.481 6.252-10.936 0-20.596-8.733-20.596-22.255 0-13.777 9.66-22.522 20.596-22.522 5.279 0 10.388 2.204 12.481 6.158V0h12.573v66.314Zm-12.846-21.606c0-6.435-4.646-10.207-9.838-10.207-5.379 0-9.846 4.046-9.846 10.207 0 6.358 4.467 10.385 9.842 10.385 5.291.007 9.842-4.224 9.842-10.385Zm-63.89-1.11c0-6.525 3.373-8.732 7.836-8.732 4.281 0 7.38 2.849 7.38 8.547v22.893h12.664V40.659c0-12.224-6.016-18.203-15.585-18.203-5.01 0-10.02 2.85-12.299 7.172v-6.245h-12.657v42.923h12.661V43.599Zm-38.376 23.445c-12.026 0-22.058-8.824-22.058-22.339 0-13.522 10.021-22.259 22.058-22.259 12.037 0 22.145 8.737 22.145 22.26 0 13.522-10.119 22.338-22.145 22.338Zm0-12.497c5.28 0 9.659-3.867 9.659-9.838 0-5.793-4.375-9.747-9.659-9.747a9.377 9.377 0 0 0-6.845 2.815 9.554 9.554 0 0 0-2.723 6.932c.003 5.979 4.375 9.838 9.568 9.838ZM145.428 34.87c3.734 0 7.016 2.944 7.016 8.546v22.898h12.572V41.934c0-12.96-6.301-19.486-16.401-19.486-3.001 0-8.653.911-12.755 7.627-2.371-4.964-6.925-7.54-13.656-7.54a12.167 12.167 0 0 0-11.114 7.08v-6.229H98.418V66.31h12.66V43.599c0-6.526 3.556-8.733 7.381-8.733 3.646 0 6.921 2.849 7.016 8.273v23.17h12.664V43.6c0-6.241 3.281-8.73 7.289-8.73Z" fill="#000" fill-rule="evenodd"/>
</svg>